# xmcd
#
# Track frame offsets:
#  183
#  12220
#  22460
#  34075
#  45893
#  55768
#  67800
#  77465
#  88338
#  102345
#  114313
#  126533
#  140978
#  157595
#  172240
#  185700
#  199628
#  210695
#
# Disc length: 2989 seconds
#
# Revision: 0
# Processed by: cddbd v1.4PL0 Copyright (c) Steve Scherf et al.
# Submitted via: AltoMP3_Maker 3.0
#
DISCID=fa0bab12
DTITLE=Various Artist - Goldene Rheinlieder
DYEAR=1900
DGENRE=
TTITLE0=Einmal am Rhein...
TTITLE1=Die Rheinpartie
TTITLE2=Oh du wünderschöner deutscher Rhein
TTITLE3=Schütt' die Sorgen in ein Gläschen Wein
TTITLE4=Tummel dich guts Weinlein
TTITLE5=Freunde lasset uns beim Zechen...
TTITLE6=Ich hab' den Vater Rhein in seinem Bett geseh'n
TTITLE7=Gönnermarsch
TTITLE8=Es geht nichts über die Gemütlichkeit
TTITLE9=Gold und Silber
TTITLE10=Wenn das Wasser im Rhein
TTITLE11=Das schönste Souvenir am Rhein
TTITLE12=Ein Prosit der Gemütlichkeit
TTITLE13=Es soll keiner sagen wer trinkt
TTITLE14=Im schwarzen Walfisch zu Ascalon
TTITLE15=Beim Kronenwirt
TTITLE16=Im Glugg Glugg lebe ich
TTITLE17=Keinen Tropfen im Becher mehr
EXTD=
EXTT0=
EXTT1=
EXTT2=
EXTT3=
EXTT4=
EXTT5=
EXTT6=
EXTT7=
EXTT8=
EXTT9=
EXTT10=
EXTT11=
EXTT12=
EXTT13=
EXTT14=
EXTT15=
EXTT16=
EXTT17=
PLAYORDER=
